<svg width="256" height="256" viewBox="0 0 256 256" fill="none" xmlns="http://www.w3.org/2000/svg">
<rect x="170.756" y="43.6636" width="67.6103" height="109.867" rx="11" fill="#386FDC"/>
<rect x="170.756" y="40.2831" width="72.6811" height="59.159" rx="3" fill="#59BCF1"/>
<rect x="18.6333" y="43.6636" width="67.6103" height="109.867" rx="11" fill="#386FDC"/>
<rect x="13.5625" y="40.2831" width="72.6811" height="59.159" rx="3" fill="#59BCF1"/>
<rect x="57.5092" y="38.5928" width="141.982" height="192.689" rx="6" fill="#E83AA9"/>
<rect x="76.1021" y="101.132" width="104.796" height="15.2123" fill="#E770A6"/>
<rect x="76.1021" y="121.415" width="104.796" height="15.2123" fill="#E770A6"/>
<rect x="76.1021" y="141.699" width="104.796" height="15.2123" fill="#E770A6"/>
<rect x="84.5533" y="96.0616" width="11.8318" height="52.398" fill="#E770A6"/>
<rect x="109.907" y="96.0616" width="11.8318" height="52.398" fill="#E770A6"/>
<rect x="135.261" y="96.0616" width="11.8318" height="52.398" fill="#E770A6"/>
<rect x="160.615" y="96.0616" width="11.8318" height="52.398" fill="#E770A6"/>
<rect x="76.1021" y="161.982" width="104.796" height="15.2123" fill="#E770A6"/>
<rect x="76.1021" y="182.265" width="104.796" height="15.2123" fill="#E770A6"/>
<rect x="76.1021" y="202.548" width="104.796" height="15.2123" fill="#E770A6"/>
<rect x="84.5533" y="170.433" width="11.8318" height="52.398" fill="#E770A6"/>
<rect x="109.907" y="170.433" width="11.8318" height="52.398" fill="#E770A6"/>
<rect x="135.261" y="170.433" width="11.8318" height="52.398" fill="#E770A6"/>
<rect x="160.615" y="170.433" width="11.8318" height="52.398" fill="#E770A6"/>
<path d="M37.2261 25C37.2261 22.2386 39.4647 20 42.2261 20H209.703C212.465 20 214.703 22.2386 214.703 25V53.8051V53.8051C214.703 72.4752 199.568 87.6103 180.898 87.6103H71.0312C52.3612 87.6103 37.2261 72.4752 37.2261 53.8051V53.8051V25Z" fill="#F545A1"/>
<rect x="25.3943" y="153.53" width="202.831" height="59.159" rx="3" fill="#3057CE"/>
<path d="M25.3943 156.53C25.3943 154.873 26.7374 153.53 28.3943 153.53H225.225C226.882 153.53 228.225 154.873 228.225 156.53V180.145C228.225 181.295 227.257 182.208 226.109 182.141L27.2778 170.543C26.2203 170.481 25.3943 169.606 25.3943 168.546V156.53Z" fill="#366BD5"/>
<rect x="86.2436" y="148.46" width="8.45129" height="67.6103" rx="1" fill="#55AEF2"/>
<rect x="162.305" y="148.46" width="8.45129" height="67.6103" rx="1" fill="#55AEF2"/>
<rect x="18.6333" y="102.823" width="35.4954" height="15.2123" fill="#3D81E2"/>
<rect x="18.6333" y="123.106" width="35.4954" height="15.2123" fill="#3D81E2"/>
<rect x="22.0138" y="99.4421" width="11.8318" height="42.2564" fill="#3D81E2"/>
<rect x="42.2969" y="99.4421" width="11.8318" height="42.2564" fill="#3D81E2"/>
<rect x="238.367" y="138.318" width="35.4954" height="15.2123" transform="rotate(-180 238.367 138.318)" fill="#3D81E2"/>
<rect x="238.367" y="118.035" width="35.4954" height="15.2123" transform="rotate(-180 238.367 118.035)" fill="#3D81E2"/>
<rect x="234.986" y="141.699" width="11.8318" height="42.2564" transform="rotate(-180 234.986 141.699)" fill="#3D81E2"/>
<rect x="214.703" y="141.699" width="11.8318" height="42.2564" transform="rotate(-180 214.703 141.699)" fill="#3D81E2"/>
<rect x="81.1728" y="227.902" width="18.5928" height="8.45129" rx="1" fill="#9D3972"/>
<rect width="11.8318" height="5.07077" transform="matrix(1 0 0 -1 84.5533 236.353)" fill="#232230"/>
<rect x="157.234" y="227.902" width="18.5928" height="8.45129" rx="1" fill="#9D3972"/>
<rect width="11.8318" height="5.07077" transform="matrix(1 0 0 -1 160.615 236.353)" fill="#232230"/>
</svg>
