<svg width="404" height="158" viewBox="0 0 404 158" fill="none" xmlns="http://www.w3.org/2000/svg">
<path d="M113.413 101V61.7273H129.138C132.027 61.7273 134.437 62.1555 136.367 63.0121C138.298 63.8686 139.749 65.0575 140.72 66.5788C141.692 68.0874 142.178 69.826 142.178 71.7947C142.178 73.3288 141.871 74.6776 141.257 75.8409C140.643 76.9915 139.8 77.9375 138.726 78.679C137.665 79.4077 136.45 79.9254 135.082 80.2322V80.6158C136.578 80.6797 137.978 81.1016 139.282 81.8814C140.599 82.6612 141.666 83.7543 142.484 85.1605C143.303 86.554 143.712 88.2159 143.712 90.1463C143.712 92.2301 143.194 94.0902 142.158 95.7266C141.136 97.3501 139.621 98.6349 137.614 99.581C135.607 100.527 133.133 101 130.192 101H113.413ZM121.717 94.2116H128.486C130.8 94.2116 132.487 93.7706 133.548 92.8885C134.609 91.9936 135.14 90.8047 135.14 89.3217C135.14 88.2351 134.878 87.2763 134.354 86.4453C133.83 85.6143 133.082 84.9624 132.11 84.4893C131.151 84.0163 130.007 83.7798 128.678 83.7798H121.717V94.2116ZM121.717 78.1612H127.872C129.01 78.1612 130.02 77.9631 130.902 77.5668C131.797 77.1577 132.5 76.5824 133.011 75.8409C133.536 75.0994 133.798 74.2109 133.798 73.1754C133.798 71.7564 133.293 70.6122 132.283 69.7429C131.286 68.8736 129.866 68.4389 128.026 68.4389H121.717V78.1612ZM154.12 101.556C152.241 101.556 150.566 101.23 149.096 100.578C147.626 99.9134 146.463 98.9354 145.606 97.6442C144.762 96.3402 144.34 94.7166 144.34 92.7734C144.34 91.1371 144.641 89.7628 145.242 88.6506C145.843 87.5384 146.661 86.6435 147.696 85.9659C148.732 85.2884 149.908 84.777 151.225 84.4318C152.554 84.0866 153.948 83.8438 155.405 83.7031C157.118 83.5241 158.499 83.358 159.547 83.2045C160.595 83.0384 161.356 82.7955 161.829 82.4759C162.302 82.1562 162.539 81.6832 162.539 81.0568V80.9418C162.539 79.7273 162.155 78.7876 161.388 78.1229C160.634 77.4581 159.56 77.1257 158.166 77.1257C156.696 77.1257 155.527 77.4517 154.657 78.1037C153.788 78.7429 153.213 79.5483 152.931 80.5199L145.376 79.9062C145.759 78.1165 146.514 76.5696 147.639 75.2656C148.764 73.9489 150.215 72.9389 151.992 72.2358C153.781 71.5199 155.853 71.1619 158.205 71.1619C159.841 71.1619 161.407 71.3537 162.903 71.7372C164.411 72.1207 165.747 72.7152 166.911 73.5206C168.087 74.326 169.014 75.3615 169.691 76.6271C170.369 77.88 170.708 79.3821 170.708 81.1335V101H162.96V96.9155H162.73C162.257 97.8359 161.625 98.6477 160.832 99.3509C160.039 100.041 159.087 100.585 157.975 100.981C156.862 101.364 155.578 101.556 154.12 101.556ZM156.46 95.9183C157.661 95.9183 158.723 95.6818 159.643 95.2088C160.563 94.723 161.286 94.071 161.81 93.2528C162.334 92.4347 162.596 91.5078 162.596 90.4723V87.3466C162.34 87.5128 161.989 87.6662 161.541 87.8068C161.107 87.9347 160.615 88.0561 160.065 88.1712C159.515 88.2734 158.965 88.3693 158.416 88.4588C157.866 88.5355 157.367 88.6058 156.92 88.6697C155.961 88.8104 155.124 89.0341 154.408 89.3409C153.692 89.6477 153.136 90.0632 152.74 90.5874C152.343 91.0987 152.145 91.7379 152.145 92.505C152.145 93.6172 152.548 94.4673 153.353 95.0554C154.171 95.6307 155.207 95.9183 156.46 95.9183ZM187.114 101.575C184.097 101.575 181.501 100.936 179.328 99.6577C177.168 98.3665 175.506 96.5767 174.342 94.2884C173.192 92 172.616 89.3665 172.616 86.3878C172.616 83.3707 173.198 80.7244 174.361 78.4489C175.538 76.1605 177.206 74.3771 179.366 73.0987C181.527 71.8075 184.097 71.1619 187.075 71.1619C189.645 71.1619 191.895 71.6286 193.825 72.5618C195.756 73.495 197.283 74.8054 198.408 76.4929C199.533 78.1804 200.153 80.1619 200.268 82.4375H192.56C192.342 80.9673 191.767 79.7848 190.834 78.8899C189.913 77.9822 188.705 77.5284 187.209 77.5284C185.944 77.5284 184.838 77.8736 183.892 78.5639C182.959 79.2415 182.23 80.2322 181.706 81.5362C181.182 82.8402 180.92 84.419 180.92 86.2727C180.92 88.152 181.175 89.75 181.687 91.0668C182.211 92.3835 182.946 93.3871 183.892 94.0774C184.838 94.7678 185.944 95.1129 187.209 95.1129C188.143 95.1129 188.98 94.9212 189.722 94.5376C190.476 94.1541 191.096 93.598 191.582 92.8693C192.08 92.1278 192.406 91.2393 192.56 90.2038H200.268C200.141 92.4538 199.527 94.4354 198.427 96.1484C197.341 97.8487 195.839 99.1783 193.921 100.137C192.003 101.096 189.734 101.575 187.114 101.575ZM209.661 92.5241L209.68 82.7251H210.869L220.303 71.5455H229.681L217.005 86.3494H215.068L209.661 92.5241ZM202.259 101V61.7273H210.428V101H202.259ZM220.668 101L212 88.1712L217.446 82.3991L230.237 101H220.668ZM230.448 112.045V71.5455H238.502V76.4929H238.867C239.225 75.7003 239.742 74.8949 240.42 74.0767C241.11 73.2457 242.005 72.5554 243.105 72.0057C244.217 71.4432 245.598 71.1619 247.247 71.1619C249.394 71.1619 251.376 71.7244 253.191 72.8494C255.007 73.9616 256.458 75.6428 257.544 77.8928C258.631 80.13 259.174 82.9361 259.174 86.3111C259.174 89.5966 258.644 92.3707 257.583 94.6335C256.534 96.8835 255.103 98.5902 253.287 99.7536C251.485 100.904 249.465 101.479 247.228 101.479C245.642 101.479 244.294 101.217 243.181 100.693C242.082 100.169 241.181 99.5107 240.478 98.718C239.774 97.9126 239.237 97.1009 238.867 96.2827H238.617V112.045H230.448ZM238.445 86.2727C238.445 88.0241 238.688 89.5518 239.174 90.8558C239.659 92.1598 240.362 93.1761 241.283 93.9048C242.203 94.6207 243.322 94.9787 244.639 94.9787C245.968 94.9787 247.093 94.6143 248.014 93.8857C248.934 93.1442 249.631 92.1214 250.104 90.8175C250.59 89.5007 250.833 87.9858 250.833 86.2727C250.833 84.5724 250.596 83.0767 250.123 81.7855C249.65 80.4943 248.953 79.4844 248.033 78.7557C247.112 78.027 245.981 77.6626 244.639 77.6626C243.309 77.6626 242.184 78.0142 241.264 78.7173C240.356 79.4205 239.659 80.4176 239.174 81.7088C238.688 83 238.445 84.5213 238.445 86.2727ZM269.779 101.556C267.9 101.556 266.225 101.23 264.755 100.578C263.285 99.9134 262.122 98.9354 261.265 97.6442C260.421 96.3402 260 94.7166 260 92.7734C260 91.1371 260.3 89.7628 260.901 88.6506C261.502 87.5384 262.32 86.6435 263.355 85.9659C264.391 85.2884 265.567 84.777 266.884 84.4318C268.213 84.0866 269.607 83.8438 271.064 83.7031C272.777 83.5241 274.158 83.358 275.206 83.2045C276.255 83.0384 277.015 82.7955 277.488 82.4759C277.961 82.1562 278.198 81.6832 278.198 81.0568V80.9418C278.198 79.7273 277.814 78.7876 277.047 78.1229C276.293 77.4581 275.219 77.1257 273.826 77.1257C272.355 77.1257 271.186 77.4517 270.316 78.1037C269.447 78.7429 268.872 79.5483 268.59 80.5199L261.035 79.9062C261.419 78.1165 262.173 76.5696 263.298 75.2656C264.423 73.9489 265.874 72.9389 267.651 72.2358C269.441 71.5199 271.512 71.1619 273.864 71.1619C275.5 71.1619 277.066 71.3537 278.562 71.7372C280.071 72.1207 281.407 72.7152 282.57 73.5206C283.746 74.326 284.673 75.3615 285.35 76.6271C286.028 77.88 286.367 79.3821 286.367 81.1335V101H278.62V96.9155H278.389C277.916 97.8359 277.284 98.6477 276.491 99.3509C275.698 100.041 274.746 100.585 273.634 100.981C272.522 101.364 271.237 101.556 269.779 101.556ZM272.119 95.9183C273.321 95.9183 274.382 95.6818 275.302 95.2088C276.223 94.723 276.945 94.071 277.469 93.2528C277.993 92.4347 278.255 91.5078 278.255 90.4723V87.3466C278 87.5128 277.648 87.6662 277.201 87.8068C276.766 87.9347 276.274 88.0561 275.724 88.1712C275.174 88.2734 274.625 88.3693 274.075 88.4588C273.525 88.5355 273.027 88.6058 272.579 88.6697C271.62 88.8104 270.783 89.0341 270.067 89.3409C269.351 89.6477 268.795 90.0632 268.399 90.5874C268.002 91.0987 267.804 91.7379 267.804 92.505C267.804 93.6172 268.207 94.4673 269.012 95.0554C269.831 95.6307 270.866 95.9183 272.119 95.9183ZM302.773 101.575C299.756 101.575 297.16 100.936 294.987 99.6577C292.827 98.3665 291.165 96.5767 290.001 94.2884C288.851 92 288.276 89.3665 288.276 86.3878C288.276 83.3707 288.857 80.7244 290.021 78.4489C291.197 76.1605 292.865 74.3771 295.026 73.0987C297.186 71.8075 299.756 71.1619 302.734 71.1619C305.304 71.1619 307.554 71.6286 309.484 72.5618C311.415 73.495 312.942 74.8054 314.067 76.4929C315.192 78.1804 315.812 80.1619 315.928 82.4375H308.219C308.001 80.9673 307.426 79.7848 306.493 78.8899C305.572 77.9822 304.364 77.5284 302.869 77.5284C301.603 77.5284 300.497 77.8736 299.551 78.5639C298.618 79.2415 297.889 80.2322 297.365 81.5362C296.841 82.8402 296.579 84.419 296.579 86.2727C296.579 88.152 296.835 89.75 297.346 91.0668C297.87 92.3835 298.605 93.3871 299.551 94.0774C300.497 94.7678 301.603 95.1129 302.869 95.1129C303.802 95.1129 304.639 94.9212 305.381 94.5376C306.135 94.1541 306.755 93.598 307.241 92.8693C307.739 92.1278 308.065 91.2393 308.219 90.2038H315.928C315.8 92.4538 315.186 94.4354 314.087 96.1484C313 97.8487 311.498 99.1783 309.58 100.137C307.663 101.096 305.393 101.575 302.773 101.575ZM325.32 92.5241L325.339 82.7251H326.528L335.963 71.5455H345.34L332.664 86.3494H330.728L325.32 92.5241ZM317.918 101V61.7273H326.087V101H317.918ZM336.327 101L327.659 88.1712L333.105 82.3991L345.896 101H336.327Z" fill="#44372C"/>
<rect x="73.7991" y="54.045" width="20.1287" height="32.7091" rx="10.0643" fill="#386FDC"/>
<rect x="73.7991" y="53.0386" width="21.6383" height="17.6126" rx="3" fill="#59BCF1"/>
<rect x="28.5096" y="54.045" width="20.1287" height="32.7091" rx="10.0643" fill="#386FDC"/>
<rect x="27" y="53.0386" width="21.6383" height="17.6126" rx="3" fill="#59BCF1"/>
<rect x="40.0837" y="52.5354" width="42.2702" height="57.3667" rx="6" fill="#E83AA9"/>
<rect x="45.619" y="71.1544" width="31.1994" height="4.52895" fill="#E770A6"/>
<rect x="45.619" y="77.193" width="31.1994" height="4.52895" fill="#E770A6"/>
<rect x="45.619" y="83.2316" width="31.1994" height="4.52895" fill="#E770A6"/>
<rect x="48.1351" y="69.6448" width="3.52252" height="15.5997" fill="#E770A6"/>
<rect x="55.6833" y="69.6448" width="3.52252" height="15.5997" fill="#E770A6"/>
<rect x="63.2316" y="69.6448" width="3.52252" height="15.5997" fill="#E770A6"/>
<rect x="70.7799" y="69.6448" width="3.52252" height="15.5997" fill="#E770A6"/>
<rect x="45.619" y="89.2702" width="31.1994" height="4.52895" fill="#E770A6"/>
<rect x="45.619" y="95.3088" width="31.1994" height="4.52895" fill="#E770A6"/>
<rect x="45.619" y="101.347" width="31.1994" height="4.52895" fill="#E770A6"/>
<rect x="48.1351" y="91.7863" width="3.52252" height="15.5997" fill="#E770A6"/>
<rect x="55.6833" y="91.7863" width="3.52252" height="15.5997" fill="#E770A6"/>
<rect x="63.2316" y="91.7863" width="3.52252" height="15.5997" fill="#E770A6"/>
<rect x="70.7799" y="91.7863" width="3.52252" height="15.5997" fill="#E770A6"/>
<path d="M34.045 52C34.045 49.2386 36.2836 47 39.045 47H81.8828C84.6442 47 86.8828 49.2386 86.8828 52V57.0643V57.0643C86.8828 62.6227 82.3769 67.1287 76.8185 67.1287H44.1094C38.551 67.1287 34.045 62.6227 34.045 57.0643V57.0643V52Z" fill="#F545A1"/>
<rect x="30.5225" y="86.7541" width="60.386" height="17.6126" rx="3" fill="#3057CE"/>
<path d="M30.5225 89.7541C30.5225 88.0973 31.8657 86.7541 33.5225 86.7541H87.9085C89.5654 86.7541 90.9086 88.0973 90.9086 89.7541V93.1888C90.9086 94.3391 89.9405 95.2523 88.7921 95.1854L32.4061 91.8962C31.3485 91.8345 30.5225 90.9589 30.5225 89.8996V89.7541Z" fill="#366BD5"/>
<rect x="48.6384" y="85.2445" width="2.51608" height="20.1287" rx="1" fill="#55AEF2"/>
<rect x="71.2831" y="85.2445" width="2.51608" height="20.1287" rx="1" fill="#55AEF2"/>
<rect x="28.5096" y="71.6576" width="10.5676" height="4.52895" fill="#3D81E2"/>
<rect x="28.5096" y="77.6962" width="10.5676" height="4.52895" fill="#3D81E2"/>
<rect x="29.5161" y="70.6512" width="3.52252" height="12.5804" fill="#3D81E2"/>
<rect x="35.5547" y="70.6512" width="3.52252" height="12.5804" fill="#3D81E2"/>
<rect x="93.9279" y="82.2252" width="10.5676" height="4.52895" transform="rotate(-180 93.9279 82.2252)" fill="#3D81E2"/>
<rect x="93.9279" y="76.1866" width="10.5676" height="4.52895" transform="rotate(-180 93.9279 76.1866)" fill="#3D81E2"/>
<rect x="92.9214" y="83.2316" width="3.52252" height="12.5804" transform="rotate(-180 92.9214 83.2316)" fill="#3D81E2"/>
<rect x="86.8828" y="83.2316" width="3.52252" height="12.5804" transform="rotate(-180 86.8828 83.2316)" fill="#3D81E2"/>
<rect x="47.1287" y="108.896" width="5.53539" height="2.51608" rx="1" fill="#9D3972"/>
<rect width="3.52252" height="1.50965" transform="matrix(1 0 0 -1 48.1351 111.412)" fill="#232230"/>
<rect x="69.7734" y="108.896" width="5.53539" height="2.51608" rx="1" fill="#9D3972"/>
<rect width="3.52252" height="1.50965" transform="matrix(1 0 0 -1 70.7799 111.412)" fill="#232230"/>
</svg>
