<svg width="250" height="216" viewBox="0 0 250 216" fill="none" xmlns="http://www.w3.org/2000/svg">
<rect x="144.537" y="42.2206" width="32.0588" height="52.0956" rx="11" fill="#386FDC"/>
<rect x="144.537" y="40.6176" width="34.4632" height="28.0515" rx="3" fill="#59BCF1"/>
<rect x="72.4044" y="42.2206" width="32.0588" height="52.0956" rx="11" fill="#386FDC"/>
<rect x="70" y="40.6176" width="34.4632" height="28.0515" rx="3" fill="#59BCF1"/>
<rect x="90.8383" y="39.8162" width="67.3235" height="91.3676" rx="6" fill="#E83AA9"/>
<rect x="99.6544" y="69.4706" width="49.6912" height="7.21324" fill="#E770A6"/>
<rect x="99.6544" y="79.0882" width="49.6912" height="7.21324" fill="#E770A6"/>
<rect x="99.6544" y="88.7059" width="49.6912" height="7.21324" fill="#E770A6"/>
<rect x="103.662" y="67.0662" width="5.61029" height="24.8456" fill="#E770A6"/>
<rect x="115.684" y="67.0662" width="5.61029" height="24.8456" fill="#E770A6"/>
<rect x="127.706" y="67.0662" width="5.61029" height="24.8456" fill="#E770A6"/>
<rect x="139.728" y="67.0662" width="5.61029" height="24.8456" fill="#E770A6"/>
<rect x="99.6544" y="98.3235" width="49.6912" height="7.21324" fill="#E770A6"/>
<rect x="99.6544" y="107.941" width="49.6912" height="7.21324" fill="#E770A6"/>
<rect x="99.6544" y="117.559" width="49.6912" height="7.21324" fill="#E770A6"/>
<rect x="103.662" y="102.331" width="5.61029" height="24.8456" fill="#E770A6"/>
<rect x="115.684" y="102.331" width="5.61029" height="24.8456" fill="#E770A6"/>
<rect x="127.706" y="102.331" width="5.61029" height="24.8456" fill="#E770A6"/>
<rect x="139.728" y="102.331" width="5.61029" height="24.8456" fill="#E770A6"/>
<path d="M81.2206 36C81.2206 33.2386 83.4592 31 86.2206 31H160.375C163.136 31 165.375 33.2386 165.375 36V47.0294V47.0294C165.375 55.8822 158.198 63.0588 149.346 63.0588H97.25C88.3972 63.0588 81.2206 55.8822 81.2206 47.0294V47.0294V36Z" fill="#F545A1"/>
<rect x="75.6103" y="94.3162" width="96.1765" height="28.0515" rx="3" fill="#3057CE"/>
<path d="M75.6103 97.3162C75.6103 95.6593 76.9534 94.3162 78.6103 94.3162H168.787C170.444 94.3162 171.787 95.6593 171.787 97.3162V105.821C171.787 106.971 170.819 107.885 169.67 107.818L77.4938 102.441C76.4363 102.379 75.6103 101.503 75.6103 100.444V97.3162Z" fill="#366BD5"/>
<rect x="104.463" y="91.9117" width="4.00735" height="32.0588" rx="1" fill="#55AEF2"/>
<rect x="140.529" y="91.9117" width="4.00735" height="32.0588" rx="1" fill="#55AEF2"/>
<rect x="72.4044" y="70.2721" width="16.8309" height="7.21324" fill="#3D81E2"/>
<rect x="72.4044" y="79.8897" width="16.8309" height="7.21324" fill="#3D81E2"/>
<rect x="74.0073" y="68.6691" width="5.61029" height="20.0368" fill="#3D81E2"/>
<rect x="83.625" y="68.6691" width="5.61029" height="20.0368" fill="#3D81E2"/>
<rect x="176.596" y="87.1029" width="16.8309" height="7.21324" transform="rotate(-180 176.596 87.1029)" fill="#3D81E2"/>
<rect x="176.596" y="77.4853" width="16.8309" height="7.21324" transform="rotate(-180 176.596 77.4853)" fill="#3D81E2"/>
<rect x="174.993" y="88.7059" width="5.61029" height="20.0368" transform="rotate(-180 174.993 88.7059)" fill="#3D81E2"/>
<rect x="165.375" y="88.7059" width="5.61029" height="20.0368" transform="rotate(-180 165.375 88.7059)" fill="#3D81E2"/>
<rect x="102.059" y="129.581" width="8.81618" height="4.00735" rx="1" fill="#9D3972"/>
<rect width="5.61029" height="2.40441" transform="matrix(1 0 0 -1 103.662 133.588)" fill="#232230"/>
<rect x="138.125" y="129.581" width="8.81618" height="4.00735" rx="1" fill="#9D3972"/>
<rect width="5.61029" height="2.40441" transform="matrix(1 0 0 -1 139.728 133.588)" fill="#232230"/>
<path d="M35.843 187V156.455H48.0731C50.3203 156.455 52.1946 156.788 53.696 157.454C55.1974 158.12 56.3259 159.045 57.0816 160.228C57.8373 161.401 58.2152 162.754 58.2152 164.285C58.2152 165.478 57.9765 166.527 57.4992 167.432C57.022 168.327 56.3657 169.062 55.5305 169.639C54.7052 170.206 53.7606 170.609 52.6967 170.847V171.146C53.86 171.195 54.9488 171.523 55.963 172.13C56.9872 172.737 57.8174 173.587 58.4538 174.68C59.0902 175.764 59.4083 177.057 59.4083 178.558C59.4083 180.179 59.0056 181.626 58.2002 182.898C57.4048 184.161 56.2265 185.161 54.6654 185.896C53.1044 186.632 51.1804 187 48.8934 187H35.843ZM42.3011 181.72H47.566C49.3657 181.72 50.6782 181.377 51.5035 180.691C52.3288 179.995 52.7414 179.07 52.7414 177.917C52.7414 177.072 52.5376 176.326 52.1299 175.68C51.7223 175.033 51.1406 174.526 50.3849 174.158C49.6392 173.79 48.7492 173.607 47.7152 173.607H42.3011V181.72ZM42.3011 169.237H47.0887C47.9737 169.237 48.7592 169.082 49.4453 168.774C50.1413 168.456 50.6882 168.009 51.0859 167.432C51.4936 166.855 51.6974 166.164 51.6974 165.359C51.6974 164.255 51.3046 163.365 50.5191 162.689C49.7436 162.013 48.6399 161.675 47.2081 161.675H42.3011V169.237ZM67.5039 187.433C66.0423 187.433 64.7397 187.179 63.5963 186.672C62.4528 186.155 61.548 185.394 60.8818 184.39C60.2255 183.376 59.8974 182.113 59.8974 180.602C59.8974 179.329 60.1311 178.26 60.5984 177.395C61.0657 176.53 61.7021 175.834 62.5075 175.307C63.3129 174.78 64.2276 174.382 65.2518 174.114C66.2859 173.845 67.3697 173.656 68.5032 173.547C69.8356 173.408 70.9095 173.278 71.7248 173.159C72.5401 173.03 73.1318 172.841 73.4997 172.592C73.8676 172.344 74.0515 171.976 74.0515 171.489V171.399C74.0515 170.455 73.7532 169.724 73.1566 169.207C72.57 168.69 71.7347 168.431 70.6509 168.431C69.5075 168.431 68.5977 168.685 67.9215 169.192C67.2454 169.689 66.798 170.315 66.5792 171.071L60.7028 170.594C61.0011 169.202 61.5877 167.999 62.4627 166.984C63.3377 165.96 64.4663 165.175 65.8484 164.628C67.2404 164.071 68.8512 163.793 70.6808 163.793C71.9535 163.793 73.1715 163.942 74.3349 164.24C75.5082 164.538 76.5472 165.001 77.4521 165.627C78.3668 166.254 79.0877 167.059 79.6147 168.043C80.1417 169.018 80.4052 170.186 80.4052 171.548V187H74.3796V183.823H74.2007C73.8328 184.539 73.3406 185.17 72.7241 185.717C72.1076 186.254 71.3668 186.677 70.5018 186.985C69.6367 187.283 68.6374 187.433 67.5039 187.433ZM69.3235 183.048C70.2582 183.048 71.0835 182.864 71.7994 182.496C72.5153 182.118 73.0771 181.611 73.4847 180.974C73.8924 180.338 74.0963 179.617 74.0963 178.812V176.381C73.8974 176.51 73.624 176.629 73.2759 176.739C72.9379 176.838 72.5551 176.933 72.1275 177.022C71.6999 177.102 71.2724 177.176 70.8448 177.246C70.4173 177.305 70.0295 177.36 69.6815 177.41C68.9357 177.519 68.2845 177.693 67.7276 177.932C67.1708 178.17 66.7383 178.494 66.4301 178.901C66.1218 179.299 65.9677 179.796 65.9677 180.393C65.9677 181.258 66.2809 181.919 66.9073 182.376C67.5437 182.824 68.3491 183.048 69.3235 183.048ZM93.1654 187.447C90.8188 187.447 88.8003 186.95 87.11 185.956C85.4296 184.952 84.137 183.56 83.2321 181.78C82.3373 180 81.8898 177.952 81.8898 175.635C81.8898 173.288 82.3422 171.23 83.2471 169.46C84.1618 167.68 85.4594 166.293 87.1398 165.299C88.8202 164.295 90.8188 163.793 93.1356 163.793C95.1341 163.793 96.8841 164.156 98.3856 164.881C99.887 165.607 101.075 166.626 101.95 167.939C102.825 169.251 103.307 170.793 103.397 172.562H97.4012C97.2321 171.419 96.7847 170.499 96.0589 169.803C95.3429 169.097 94.4033 168.744 93.24 168.744C92.2556 168.744 91.3955 169.013 90.6597 169.55C89.9339 170.077 89.3671 170.847 88.9594 171.862C88.5517 172.876 88.3479 174.104 88.3479 175.545C88.3479 177.007 88.5468 178.25 88.9445 179.274C89.3522 180.298 89.9239 181.079 90.6597 181.616C91.3955 182.153 92.2556 182.421 93.24 182.421C93.9658 182.421 94.6171 182.272 95.1938 181.974C95.7804 181.675 96.2627 181.243 96.6405 180.676C97.0283 180.099 97.2819 179.408 97.4012 178.603H103.397C103.297 180.353 102.82 181.894 101.965 183.227C101.12 184.549 99.9516 185.583 98.4601 186.329C96.9687 187.075 95.2037 187.447 93.1654 187.447ZM110.702 180.408L110.717 172.786H111.642L118.98 164.091H126.273L116.414 175.605H114.908L110.702 180.408ZM104.945 187V156.455H111.299V187H104.945ZM119.263 187L112.522 177.022L116.757 172.533L126.706 187H119.263ZM126.87 195.591V164.091H133.134V167.939H133.418C133.696 167.322 134.099 166.696 134.626 166.06C135.163 165.413 135.859 164.876 136.714 164.449C137.579 164.011 138.653 163.793 139.936 163.793C141.606 163.793 143.147 164.23 144.559 165.105C145.971 165.97 147.1 167.278 147.945 169.028C148.79 170.768 149.213 172.95 149.213 175.575C149.213 178.131 148.8 180.288 147.975 182.048C147.159 183.798 146.046 185.126 144.634 186.031C143.232 186.925 141.661 187.373 139.921 187.373C138.688 187.373 137.639 187.169 136.774 186.761C135.919 186.354 135.218 185.842 134.671 185.225C134.124 184.599 133.706 183.967 133.418 183.331H133.224V195.591H126.87ZM133.09 175.545C133.09 176.908 133.279 178.096 133.656 179.11C134.034 180.124 134.581 180.915 135.297 181.482C136.013 182.038 136.883 182.317 137.907 182.317C138.941 182.317 139.816 182.033 140.532 181.467C141.248 180.89 141.79 180.094 142.158 179.08C142.536 178.056 142.725 176.878 142.725 175.545C142.725 174.223 142.541 173.06 142.173 172.055C141.805 171.051 141.263 170.266 140.547 169.699C139.831 169.132 138.951 168.849 137.907 168.849C136.873 168.849 135.998 169.122 135.282 169.669C134.576 170.216 134.034 170.991 133.656 171.996C133.279 173 133.09 174.183 133.09 175.545ZM157.461 187.433C155.999 187.433 154.697 187.179 153.553 186.672C152.41 186.155 151.505 185.394 150.839 184.39C150.183 183.376 149.855 182.113 149.855 180.602C149.855 179.329 150.088 178.26 150.555 177.395C151.023 176.53 151.659 175.834 152.465 175.307C153.27 174.78 154.185 174.382 155.209 174.114C156.243 173.845 157.327 173.656 158.46 173.547C159.793 173.408 160.867 173.278 161.682 173.159C162.497 173.03 163.089 172.841 163.457 172.592C163.825 172.344 164.009 171.976 164.009 171.489V171.399C164.009 170.455 163.71 169.724 163.114 169.207C162.527 168.69 161.692 168.431 160.608 168.431C159.465 168.431 158.555 168.685 157.879 169.192C157.203 169.689 156.755 170.315 156.536 171.071L150.66 170.594C150.958 169.202 151.545 167.999 152.42 166.984C153.295 165.96 154.423 165.175 155.805 164.628C157.198 164.071 158.808 163.793 160.638 163.793C161.911 163.793 163.129 163.942 164.292 164.24C165.465 164.538 166.504 165.001 167.409 165.627C168.324 166.254 169.045 167.059 169.572 168.043C170.099 169.018 170.362 170.186 170.362 171.548V187H164.337V183.823H164.158C163.79 184.539 163.298 185.17 162.681 185.717C162.065 186.254 161.324 186.677 160.459 186.985C159.594 187.283 158.595 187.433 157.461 187.433ZM159.281 183.048C160.215 183.048 161.041 182.864 161.756 182.496C162.472 182.118 163.034 181.611 163.442 180.974C163.85 180.338 164.053 179.617 164.053 178.812V176.381C163.855 176.51 163.581 176.629 163.233 176.739C162.895 176.838 162.512 176.933 162.085 177.022C161.657 177.102 161.23 177.176 160.802 177.246C160.374 177.305 159.987 177.36 159.639 177.41C158.893 177.519 158.242 177.693 157.685 177.932C157.128 178.17 156.695 178.494 156.387 178.901C156.079 179.299 155.925 179.796 155.925 180.393C155.925 181.258 156.238 181.919 156.864 182.376C157.501 182.824 158.306 183.048 159.281 183.048ZM183.123 187.447C180.776 187.447 178.757 186.95 177.067 185.956C175.387 184.952 174.094 183.56 173.189 181.78C172.294 180 171.847 177.952 171.847 175.635C171.847 173.288 172.299 171.23 173.204 169.46C174.119 167.68 175.417 166.293 177.097 165.299C178.777 164.295 180.776 163.793 183.093 163.793C185.091 163.793 186.841 164.156 188.343 164.881C189.844 165.607 191.032 166.626 191.907 167.939C192.782 169.251 193.265 170.793 193.354 172.562H187.358C187.189 171.419 186.742 170.499 186.016 169.803C185.3 169.097 184.36 168.744 183.197 168.744C182.213 168.744 181.353 169.013 180.617 169.55C179.891 170.077 179.324 170.847 178.917 171.862C178.509 172.876 178.305 174.104 178.305 175.545C178.305 177.007 178.504 178.25 178.902 179.274C179.309 180.298 179.881 181.079 180.617 181.616C181.353 182.153 182.213 182.421 183.197 182.421C183.923 182.421 184.574 182.272 185.151 181.974C185.738 181.675 186.22 181.243 186.598 180.676C186.985 180.099 187.239 179.408 187.358 178.603H193.354C193.255 180.353 192.777 181.894 191.922 183.227C191.077 184.549 189.909 185.583 188.417 186.329C186.926 187.075 185.161 187.447 183.123 187.447ZM200.659 180.408L200.674 172.786H201.599L208.937 164.091H216.23L206.371 175.605H204.865L200.659 180.408ZM194.902 187V156.455H201.256V187H194.902ZM209.22 187L202.479 177.022L206.715 172.533L216.663 187H209.22Z" fill="black"/>
</svg>
