<svg width="161" height="153" viewBox="0 0 161 153" fill="none" xmlns="http://www.w3.org/2000/svg">
<rect x="106" y="26" width="40" height="65" rx="11" fill="#386FDC"/>
<rect x="106" y="24" width="43" height="35" rx="3" fill="#59BCF1"/>
<rect x="16" y="26" width="40" height="65" rx="11" fill="#386FDC"/>
<rect x="13" y="24" width="43" height="35" rx="3" fill="#59BCF1"/>
<rect x="39" y="23" width="84" height="114" rx="6" fill="#E83AA9"/>
<rect x="50" y="60" width="62" height="9" fill="#E770A6"/>
<rect x="50" y="72" width="62" height="9" fill="#E770A6"/>
<rect x="50" y="84" width="62" height="9" fill="#E770A6"/>
<rect x="55" y="57" width="7" height="31" fill="#E770A6"/>
<rect x="70" y="57" width="7" height="31" fill="#E770A6"/>
<rect x="85" y="57" width="7" height="31" fill="#E770A6"/>
<rect x="100" y="57" width="7" height="31" fill="#E770A6"/>
<rect x="50" y="96" width="62" height="9" fill="#E770A6"/>
<rect x="50" y="108" width="62" height="9" fill="#E770A6"/>
<rect x="50" y="120" width="62" height="9" fill="#E770A6"/>
<rect x="55" y="101" width="7" height="31" fill="#E770A6"/>
<rect x="70" y="101" width="7" height="31" fill="#E770A6"/>
<rect x="85" y="101" width="7" height="31" fill="#E770A6"/>
<rect x="100" y="101" width="7" height="31" fill="#E770A6"/>
<path d="M27 17C27 14.2386 29.2386 12 32 12H127C129.761 12 132 14.2386 132 17V32C132 43.0457 123.046 52 112 52H47C35.9543 52 27 43.0457 27 32V17Z" fill="#F545A1"/>
<rect x="20" y="91" width="120" height="35" rx="3" fill="#3057CE"/>
<path d="M20 94C20 92.3431 21.3431 91 23 91H137C138.657 91 140 92.3431 140 94V105.88C140 107.03 139.032 107.944 137.884 107.877L21.8835 101.11C20.826 101.048 20 100.173 20 99.1133V94Z" fill="#366BD5"/>
<rect x="56" y="88" width="5" height="40" rx="1" fill="#55AEF2"/>
<rect x="101" y="88" width="5" height="40" rx="1" fill="#55AEF2"/>
<rect x="16" y="61" width="21" height="9" fill="#3D81E2"/>
<rect x="16" y="73" width="21" height="9" fill="#3D81E2"/>
<rect x="18" y="59" width="7" height="25" fill="#3D81E2"/>
<rect x="30" y="59" width="7" height="25" fill="#3D81E2"/>
<rect x="146" y="82" width="21" height="9" transform="rotate(-180 146 82)" fill="#3D81E2"/>
<rect x="146" y="70" width="21" height="9" transform="rotate(-180 146 70)" fill="#3D81E2"/>
<rect x="144" y="84" width="7" height="25" transform="rotate(-180 144 84)" fill="#3D81E2"/>
<rect x="132" y="84" width="7" height="25" transform="rotate(-180 132 84)" fill="#3D81E2"/>
<rect x="53" y="135" width="11" height="5" rx="1" fill="#9D3972"/>
<rect width="7" height="3" transform="matrix(1 0 0 -1 55 140)" fill="#232230"/>
<rect x="98" y="135" width="11" height="5" rx="1" fill="#9D3972"/>
<rect width="7" height="3" transform="matrix(1 0 0 -1 100 140)" fill="#232230"/>
</svg>
